# xmcd
#
# Track frame offsets: 
#        150
#        21288
#        34842
#        48410
#        63880
#        75869
#        88850
#        106142
#        122674
#        138468
#        156067
#        176052
#        189504
#        202818
#        223173
#        241318
#        261078
#
# Disc length: 3729 seconds
#
# Revision: 0
# Processed by: cddbd v1.5.2PL0 Copyright (c) Steve Scherf et al.
# Submitted via: ExactAudioCopyFreeDBPlugin 1.0
#
DISCID=e20e8f11
DTITLE=Various Artist - The Wants List Vol. 3
DYEAR=2007
DGENRE=R&B 70's
TTITLE0=The Modulations - It's rough out here
TTITLE1=Vernon Burch - Lovely lady
TTITLE2=Arnold  Blair - Trying to get next to you
TTITLE3=C. B. Overton - If I can't stop you
TTITLE4=Gloria Scott - Just as long as we're together (In my life ther
TTITLE4=e will never be another)
TTITLE5=Betty Wright - Smother me with your love
TTITLE6=The Fatback Band - Feed me your love
TTITLE7=George McCrae and Gwen McCrae - The rub
TTITLE8=Carl Davis and The Chi-Sound Orchestra - Show me the way to love
TTITLE9=Michelle Wiley - Feel good
TTITLE10=Archie Bell - Harder and harder
TTITLE11=William Bell - The man in the street
TTITLE12=Charles Drain - Is this really love
TTITLE13=Ken Williams - Sweet music soft lights and you
TTITLE14=Betty Everett - Wondering
TTITLE15=Ernie Hines - Electrified love
TTITLE16=Passion - Midnight lovers
EXTD=
EXTT0=
EXTT1=
EXTT2=
EXTT3=
EXTT4=
EXTT5=
EXTT6=
EXTT7=
EXTT8=
EXTT9=
EXTT10=
EXTT11=
EXTT12=
EXTT13=
EXTT14=
EXTT15=
EXTT16=
PLAYORDER=
